<svg width="64" height="64" viewBox="0 0 64 64" fill="none" xmlns="http://www.w3.org/2000/svg">
  <rect x="5" y="5" width="54" height="54" rx="18" fill="#34A0DE" fill-opacity="0.15"/>
  <path d="M32 18C24.268 18 18 24.268 18 32C18 39.732 24.268 46 32 46C39.732 46 46 39.732 46 32C46 24.268 39.732 18 32 18ZM28.6 36.7L25.1 33.2C24.52 32.62 24.52 31.68 25.1 31.1C25.68 30.52 26.62 30.52 27.2 31.1L29.6 33.5L36.8 26.3C37.38 25.72 38.32 25.72 38.9 26.3C39.48 26.88 39.48 27.82 38.9 28.4L30.6 36.7C30.32 36.98 29.96 37.12 29.6 37.12C29.24 37.12 28.88 36.98 28.6 36.7Z" fill="#1F87C0"/>
</svg>
